<?xml version="1.0" encoding="UTF-8"?>
<svg xmlns="http://www.w3.org/2000/svg" xmlns:xlink="http://www.w3.org/1999/xlink" viewBox="0 0 192 192" width="192px" height="192px">
<g id="surface2931630">
<path style=" stroke:none;fill-rule:nonzero;fill:rgb(1.960784%,56.078434%,57.254905%);fill-opacity:1;" d="M 25 8 C 17.753906 8 12.023438 11.84375 9.3125 18.5 C 8.457031 20.554688 8.023438 22.738281 8.015625 24.984375 C 8.007812 32.433594 12.808594 38.476562 15.6875 42.09375 C 16.191406 42.726562 16.644531 43.289062 17.125 43.96875 L 18.421875 45.6875 C 19.710938 47.375 21.175781 49.289062 21.640625 50.25 C 21.792969 50.691406 21.992188 51.460938 22.265625 52.4375 C 23.523438 56.957031 25.867188 65.359375 29.59375 71.75 C 31.097656 74.324219 33.214844 77.5625 34.734375 79.84375 C 33.71875 84.933594 32 94.304688 32 100 C 32 110 34.074219 118.03125 38.59375 125.375 C 40.265625 128 45.367188 136 54 136 C 57.0625 136 62.15625 134.804688 63.53125 127.203125 C 69.652344 135.097656 80 145 96 152 C 96 152 66.007812 117.003906 60.734375 95.1875 C 60.734375 95.1875 54.996094 101.003906 50.125 112.875 C 48.667969 109.210938 48 105.078125 48 100 C 48 94.984375 50.207031 83.769531 51.0625 79.875 L 51.8125 76.484375 L 49.84375 73.625 C 49.8125 73.570312 45.78125 67.75 43.421875 63.703125 C 40.734375 59.09375 38.75 51.964844 37.6875 48.140625 C 37.167969 46.277344 36.757812 44.925781 36.375 44.015625 C 34.976562 40.984375 32.925781 38.320312 31.125 35.96875 L 30.125 34.640625 C 29.621094 33.914062 28.957031 33.070312 28.203125 32.125 C 26.738281 30.285156 24.015625 26.855469 24.09375 24.65625 L 24.984375 24.03125 L 25 24 C 31.359375 24 39.550781 28.515625 42.640625 30.21875 C 43.648438 30.769531 44.390625 31.152344 44.78125 31.328125 L 46.171875 31.9375 L 48.90625 32.03125 C 52.480469 32.109375 63.351562 32.367188 71.03125 35.4375 C 85.039062 41.039062 92.785156 46.644531 100.65625 56.875 C 119.25 81.050781 126.109375 112.359375 126.171875 112.671875 L 127.171875 117.1875 L 131.546875 118.609375 C 131.699219 118.664062 143.945312 122.757812 155.359375 133.453125 C 141 137.003906 136 144 136 144 C 136 144 139.808594 151.425781 158 163 C 169 170 175 175 184 184 C 184 184 175.003906 164 162.4375 148.0625 C 172.003906 145 183.765625 143.40625 183.765625 143.40625 L 176.484375 133.3125 C 164.5 116.695312 148.429688 108.3125 140.78125 105.046875 C 138.125 94.917969 130.105469 68.917969 113.34375 47.125 C 103.75 34.652344 93.542969 27.195312 76.96875 20.5625 C 67.152344 16.640625 55.351562 16.175781 50.09375 16.046875 C 45.492188 13.519531 35.273438 8 25 8 Z M 57.5 40 C 57.5 40 54 40 50 41 L 61 55.984375 C 64 52 64 47.34375 64 47.34375 C 64 47.34375 62.003906 42 57.5 40 Z M 57.5 40 "/>
</g>
</svg>
